<?xml version="1.0" encoding="utf-8"?>
<!-- Generator: Adobe Illustrator 16.0.4, SVG Export Plug-In . SVG Version: 6.00 Build 0)  -->
<!DOCTYPE svg PUBLIC "-//W3C//DTD SVG 1.1//EN" "http://www.w3.org/Graphics/SVG/1.1/DTD/svg11.dtd">
<svg version="1.1" id="Layer_1" xmlns="http://www.w3.org/2000/svg" xmlns:xlink="http://www.w3.org/1999/xlink" x="0px" y="0px"
	 width="14.322px" height="15.503px" viewBox="0 0 14.322 15.503" enable-background="new 0 0 14.322 15.503" xml:space="preserve">
<g>
	<g>
		<g>
			<g>
				<rect x="-69.635" y="5.545" fill="#FFFFFF" width="2.89" height="9.288"/>
				<path fill="#FFFFFF" d="M-68.189,0.928c-0.927,0-1.675,0.75-1.675,1.673c0,0.924,0.748,1.674,1.675,1.674
					c0.922,0,1.673-0.75,1.673-1.674C-66.516,1.678-67.267,0.928-68.189,0.928"/>
			</g>
			<path fill="#FFFFFF" d="M-64.935,14.833h2.884v-4.596c0-1.211,0.229-2.383,1.731-2.383c1.479,0,1.5,1.385,1.5,2.463v4.516h2.884
				V9.739c0-2.502-0.54-4.425-3.461-4.425c-1.404,0-2.346,0.77-2.731,1.5h-0.039V5.545h-2.768V14.833z"/>
		</g>
		<path fill="#FFFFFF" d="M-19.628,4.213c-0.533,0.236-1.105,0.396-1.706,0.468c0.613-0.368,1.084-0.95,1.306-1.643
			c-0.574,0.34-1.21,0.587-1.887,0.721c-0.541-0.577-1.313-0.938-2.168-0.938c-1.64,0-2.97,1.33-2.97,2.97
			c0,0.233,0.026,0.459,0.077,0.677c-2.469-0.124-4.658-1.306-6.123-3.104c-0.255,0.439-0.402,0.949-0.402,1.494
			c0,1.03,0.524,1.939,1.322,2.472c-0.487-0.016-0.945-0.149-1.345-0.372c0,0.013,0,0.025,0,0.037c0,1.439,1.024,2.64,2.383,2.912
			c-0.249,0.068-0.512,0.104-0.783,0.104c-0.191,0-0.377-0.019-0.559-0.054c0.378,1.181,1.475,2.039,2.774,2.063
			c-1.017,0.796-2.297,1.271-3.688,1.271c-0.24,0-0.476-0.015-0.708-0.042c1.314,0.844,2.875,1.335,4.553,1.335
			c5.463,0,8.451-4.526,8.451-8.451c0-0.128-0.003-0.257-0.009-0.384C-20.531,5.332-20.027,4.809-19.628,4.213z"/>
		<path fill="#FFFFFF" d="M5.799,14.729v-6.27H4.141V6.202h1.658c0,0,0-0.925,0-1.929c0-1.515,0.98-2.907,3.236-2.907
			c0.914,0,1.59,0.087,1.59,0.087l-0.053,2.108c0,0-0.689-0.007-1.441-0.007c-0.814,0-0.945,0.375-0.945,0.998
			c0,0.492,0-1.049,0,1.649h2.451l-0.107,2.257H8.186v6.27H5.799z"/>
	</g>
	<path fill="#FFFFFF" stroke="#FFFFFF" stroke-width="0.0432" stroke-miterlimit="10" d="M45.221,14.194
		c0.018,0.016,0.033,0.035,0.043,0.058c0.01,0.021,0.016,0.045,0.018,0.068s-0.002,0.048-0.01,0.07
		c-0.006,0.022-0.018,0.044-0.035,0.063l-0.855,0.986c-0.008,0.01-0.018,0.019-0.027,0.025c-0.01,0.008-0.02,0.014-0.029,0.02
		c-0.012,0.005-0.021,0.009-0.033,0.012s-0.023,0.005-0.035,0.006c-0.012,0-0.023,0-0.035-0.002s-0.023-0.004-0.033-0.008
		c-0.012-0.004-0.023-0.008-0.033-0.015c-0.01-0.006-0.02-0.013-0.029-0.021l-4.211-3.778c-0.018-0.017-0.031-0.036-0.043-0.059
		c-0.01-0.021-0.016-0.045-0.018-0.068c0-0.023,0.002-0.047,0.01-0.07c0.008-0.022,0.02-0.043,0.037-0.062l-0.484-0.48
		c-0.084,0.074-0.172,0.146-0.262,0.215s-0.184,0.134-0.281,0.195c-0.096,0.062-0.195,0.122-0.299,0.178
		c-0.104,0.055-0.209,0.106-0.318,0.154c-0.127,0.057-0.256,0.106-0.385,0.15c-0.129,0.043-0.26,0.081-0.391,0.111
		c-0.131,0.032-0.264,0.057-0.395,0.076c-0.133,0.02-0.266,0.032-0.396,0.04c-0.459,0.025-0.914-0.02-1.354-0.13
		c-0.439-0.109-0.859-0.284-1.248-0.518c-0.389-0.234-0.744-0.527-1.053-0.874c-0.307-0.347-0.566-0.745-0.762-1.19
		c-0.25-0.575-0.371-1.172-0.377-1.76c-0.004-0.587,0.107-1.165,0.322-1.7c0.213-0.535,0.529-1.027,0.938-1.447
		c0.404-0.418,0.9-0.764,1.471-1.005c0.127-0.054,0.256-0.102,0.387-0.143c0.129-0.041,0.26-0.076,0.389-0.105
		c0.131-0.029,0.262-0.052,0.393-0.069c0.133-0.017,0.264-0.028,0.395-0.034c0.453-0.019,0.902,0.031,1.334,0.144
		s0.846,0.288,1.227,0.521c0.381,0.232,0.73,0.522,1.031,0.863c0.303,0.341,0.557,0.733,0.752,1.171
		c0.156,0.356,0.266,0.722,0.326,1.089c0.061,0.367,0.074,0.735,0.043,1.098c-0.029,0.362-0.104,0.718-0.221,1.061
		c-0.115,0.342-0.271,0.67-0.467,0.975l0.523,0.469l0.029-0.032c0.008-0.009,0.018-0.018,0.027-0.024
		c0.01-0.008,0.02-0.014,0.031-0.02c0.01-0.004,0.021-0.008,0.033-0.011s0.023-0.005,0.035-0.005
		c0.012-0.002,0.021-0.001,0.033,0.001c0.012,0.001,0.023,0.005,0.035,0.008c0.012,0.004,0.021,0.009,0.033,0.015
		c0.01,0.006,0.02,0.014,0.029,0.022L45.221,14.194z M37.74,10.562c0.42-0.185,0.783-0.446,1.078-0.761
		c0.295-0.313,0.523-0.68,0.676-1.075c0.152-0.395,0.229-0.819,0.221-1.249c-0.006-0.43-0.098-0.865-0.283-1.284
		c-0.145-0.325-0.334-0.616-0.557-0.869c-0.225-0.253-0.482-0.467-0.766-0.64S37.52,4.383,37.201,4.3
		c-0.32-0.083-0.654-0.12-0.99-0.104c-0.098,0.004-0.193,0.013-0.291,0.025s-0.195,0.03-0.291,0.052
		c-0.098,0.022-0.193,0.048-0.291,0.079c-0.096,0.031-0.191,0.066-0.285,0.106c-0.422,0.18-0.789,0.436-1.088,0.746
		c-0.301,0.311-0.533,0.676-0.691,1.071c-0.158,0.396-0.238,0.823-0.234,1.256c0.004,0.434,0.094,0.875,0.279,1.299
		c0.145,0.33,0.336,0.625,0.562,0.881s0.49,0.473,0.777,0.646s0.598,0.303,0.922,0.385c0.324,0.081,0.66,0.115,1,0.097
		c0.098-0.006,0.195-0.015,0.293-0.029c0.098-0.014,0.195-0.031,0.291-0.055c0.098-0.023,0.193-0.051,0.291-0.082
		C37.551,10.641,37.645,10.604,37.74,10.562"/>
</g>
</svg>
