<?xml version="1.0" encoding="utf-8"?>
<!-- Generator: Adobe Illustrator 16.0.4, SVG Export Plug-In . SVG Version: 6.00 Build 0)  -->
<!DOCTYPE svg PUBLIC "-//W3C//DTD SVG 1.0//EN" "http://www.w3.org/TR/2001/REC-SVG-20010904/DTD/svg10.dtd">
<svg version="1.0" id="Layer_1" xmlns="http://www.w3.org/2000/svg" xmlns:xlink="http://www.w3.org/1999/xlink" x="0px" y="0px"
	 width="17px" height="15px" viewBox="0 0 17 15" enable-background="new 0 0 17 15" xml:space="preserve">
<path fill="#FFFFFF" d="M11.865,15C11.865,8.489,6.509,3.134,0,3.134V0.167c8.136,0,14.832,6.695,14.832,14.833H11.865z
	 M2.034,10.931c1.121,0,2.034,0.913,2.034,2.035c0,1.12-0.917,2.034-2.04,2.034C0.909,15,0,14.089,0,12.966
	C0,11.844,0.912,10.931,2.034,10.931L2.034,10.931z M9.832,15H6.949c0-3.813-3.136-6.949-6.949-6.949V5.167
	C5.394,5.167,9.832,9.606,9.832,15z"/>
</svg>
